<?xml version="1.0" standalone="no"?>
<!DOCTYPE svg PUBLIC "-//W3C//DTD SVG 20010904//EN"
 "http://www.w3.org/TR/2001/REC-SVG-20010904/DTD/svg10.dtd">
<svg version="1.0" xmlns="http://www.w3.org/2000/svg"
 width="215.000000pt" height="145.000000pt" viewBox="0 0 215.000000 145.000000"
 preserveAspectRatio="xMidYMid meet">

<g transform="translate(0.000000,145.000000) scale(0.100000,-0.100000)"
fill="#000000" stroke="none">
<path d="M1110 1412 c-23 -11 -43 -32 -58 -63 -20 -42 -29 -48 -70 -59 -158
-39 -334 -186 -410 -340 -43 -88 -72 -188 -72 -251 0 -36 -2 -37 -84 -77 -147
-70 -200 -139 -139 -179 24 -16 58 -18 285 -21 l258 -3 156 -192 c85 -106 165
-196 178 -201 13 -5 34 -6 47 -3 13 4 120 94 238 202 l213 195 124 0 124 0 0
83 c0 72 -3 88 -24 115 -17 23 -25 51 -29 101 -12 146 -79 282 -198 402 -62
63 -93 85 -170 122 -52 25 -111 49 -131 53 -26 4 -38 12 -38 23 0 30 -40 82
-75 97 -46 19 -82 18 -125 -4z m114 -53 c14 -11 26 -25 26 -30 0 -5 -34 -9
-75 -9 -41 0 -75 4 -75 9 0 16 52 51 75 51 12 0 34 -9 49 -21z m-190 -128
c-164 -94 -292 -300 -311 -497 l-6 -64 -83 0 c-99 0 -97 -3 -64 124 55 215
230 393 441 450 77 21 80 19 23 -13z m800 -643 c9 -13 16 -43 16 -71 l0 -48
-764 3 c-420 2 -768 6 -772 11 -13 12 17 35 107 82 l84 44 657 1 657 0 15 -22z
m-764 -303 c62 -74 115 -135 119 -135 4 0 73 61 153 135 132 122 150 135 183
135 20 0 35 -4 33 -8 -5 -14 -367 -342 -377 -342 -5 0 -73 79 -150 175 l-142
175 35 0 c33 0 42 -9 146 -135z m314 114 c-10 -12 -58 -57 -105 -100 l-87 -79
-76 94 c-42 51 -76 96 -76 100 0 3 82 6 182 6 l181 0 -19 -21z"/>
</g>
</svg>
